<svg xmlns="http://www.w3.org/2000/svg" viewBox="0 0 800 450" width="800" height="450" role="img" aria-label="A bright day over rolling hills with a path leading forward, an hourglass and a sheaf of grain beside it, and an open Bible in the foreground." xmlns:c2pa="http://c2pa.org/manifest"><metadata><c2pa:manifest>AAAWgmp1bWIAAAAeanVtZGMycGEAEQAQgAAAqgA4m3EDYzJwYQAAABZcanVtYgAAAEdqdW1kYzJtYQARABCAAACqADibcQN1cm46YzJwYTpkZDg4MTg5NS1lM2RlLTQ0M2ItOGRmYi04NGQzODVjMGUzYzUAAAADl2p1bWIAAAApanVtZGMyYXMAEQAQgAAAqgA4m3EDYzJwYS5hc3NlcnRpb25zAAAAALxqdW1iAAAARGp1bWRjYm9yABEAEIAAAKoAOJtxE2MycGEuaW5ncmVkaWVudC52MwAAAAAYYzJzaPs+n3mcxo7C3nOtIHEspyUAAABwY2JvcqNpZGM6Zm9ybWF0bWltYWdlL3N2Zyt4bWxqaW5zdGFuY2VJRHgseG1wOmlpZDphZTAyZWFiZC00NWJlLTQ3ZDMtOWJlYi0zODVhY2MzNmIwZWNscmVsYXRpb25zaGlwaHBhcmVudE9mAAAB4mp1bWIAAABBanVtZGNib3IAEQAQgAAAqgA4m3ETYzJwYS5hY3Rpb25zLnYyAAAAABhjMnNopJ+uNu6PJ0BOtq+AN6EnfgAAAZljYm9yomdhY3Rpb25zgqJmYWN0aW9ua2MycGEub3BlbmVkanBhcmFtZXRlcnOha2luZ3JlZGllbnRzgaJjdXJseC1zZWxmI2p1bWJmPWMycGEuYXNzZXJ0aW9ucy9jMnBhLmluZ3JlZGllbnQudjNkaGFzaFggc4dwwcjvDCCVj7tXinHZ/wivUCy8M9PQhgd+OJOXMeCkZmFjdGlvbngdY29tLmFudGhyb3BpYy5jbGF1ZGUucHJvdmlkZWRqcGFyYW1ldGVyc6F4H2NvbS5hbnRocm9waWMub3JpZ2luLWNvbmZpZGVuY2VndW5rbm93bmtkZXNjcmlwdGlvbnhmQ2xhdWRlIHByb3ZpZGVkIHRoaXMgZmlsZSBhdCB0aGUgcmVxdWVzdCBvZiBhIHVzZXIgYW5kIG1heSBoYXZlIGNyZWF0ZWQgb3IgbW9kaWZpZWQgdGhlIGZpbGUgY29udGVudHMubXNvZnR3YXJlQWdlbnShZG5hbWVmQ2xhdWRlcmFsbEFjdGlvbnNJbmNsdWRlZPUAAADIanVtYgAAAEBqdW1kY2JvcgARABCAAACqADibcRNjMnBhLmhhc2guZGF0YQAAAAAYYzJzaFTyi3avscSMA11RrogzajEAAACAY2JvcqVjYWxnZnNoYTI1NmNwYWRMAAAAAAAAAAAAAAAAZGhhc2hYIM1htvf5jEsoJ2vVTWC6dnsj03KqkqhE3d9z/MlJjjYWZG5hbWVuanVtYmYgbWFuaWZlc3RqZXhjbHVzaW9uc4GiZXN0YXJ0GQE9Zmxlbmd0aBkeBAAAAj5qdW1iAAAAJ2p1bWRjMmNsABEAEIAAAKoAOJtxA2MycGEuY2xhaW0udjIAAAACD2Nib3KlY2FsZ2ZzaGEyNTZpc2lnbmF0dXJleE1zZWxmI2p1bWJmPS9jMnBhL3VybjpjMnBhOmRkODgxODk1LWUzZGUtNDQzYi04ZGZiLTg0ZDM4NWMwZTNjNS9jMnBhLnNpZ25hdHVyZWppbnN0YW5jZUlEeCx4bXA6aWlkOmVlMjViNGEzLTZhOGUtNGE3Ny1iMDM1LWJmMzA3YTRjYWQzZXJjcmVhdGVkX2Fzc2VydGlvbnODomN1cmx4LXNlbGYjanVtYmY9YzJwYS5hc3NlcnRpb25zL2MycGEuaW5ncmVkaWVudC52M2RoYXNoWCBzh3DByO8MIJWPu1eKcdn/CK9QLLwz09CGB344k5cx4KJjdXJseCpzZWxmI2p1bWJmPWMycGEuYXNzZXJ0aW9ucy9jMnBhLmFjdGlvbnMudjJkaGFzaFggrEqNjZ3g9Dg+HjYMCsFm24VTIx4Y5J5pwWBa7pDSjEuiY3VybHgpc2VsZiNqdW1iZj1jMnBhLmFzc2VydGlvbnMvYzJwYS5oYXNoLmRhdGFkaGFzaFgge+bXJYudKYpA1HVWbAYGfZ/0GVwPLFstt3H8DCJBVaV0Y2xhaW1fZ2VuZXJhdG9yX2luZm+jZG5hbWVvQW50aHJvcGljIEZpbGVzZ3ZlcnNpb25lMS4wLjBrc3BlY1ZlcnNpb25lMi40LjAAABA4anVtYgAAAChqdW1kYzJjcwARABCAAACqADibcQNjMnBhLnNpZ25hdHVyZQAAABAIY2JvctKEWQISogEmGCFZAgowggIGMIIBjaADAgECAhRA5aAK7sI50L64g/oGQgU9Z1UTADAKBggqhkjOPQQDAzBJMRcwFQYDVQQKEw5BbnRocm9waWMsIFBCQzEuMCwGA1UEAxMlQW50aHJvcGljIENvbnRlbnQgQ3JlZGVudGlhbHMgUm9vdCBDQTAeFw0yNjA4MDcxODQzNTZaFw0yODA4MDYxOTQzNTZaMEQxFzAVBgNVBAoTDkFudGhyb3BpYywgUEJDMSkwJwYDVQQDEyBBbnRocm9waWMgQ2xhdWRlIENvbnRlbnQgU2lnbmluZzBZMBMGByqGSM49AgEGCCqGSM49AwEHA0IABJh6CmvLUBgFFNU0vUKlOVtE6djd17L5SuwX0LemFisBM3dkd/3cyjxFA3Qo5S46fX0/ihY0VZ7mfb9KF703t5OjWDBWMA4GA1UdDwEB/wQEAwIHgDAVBgNVHSUEDjAMBgorBgEEAYPoXgIBMAwGA1UdEwEB/wQCMAAwHwYDVR0jBBgwFoAUzlHiBIFOZFsj+OPEz5o+nMHXXMIwCgYIKoZIzj0EAwMDZwAwZAIwMXMdFJ4BetLLVY7ORuE9noqbbAZOZn/aArXyTwFAZfKrPzxF2vPoJNf1+UCdg1XGAjBwX1zd9WGqYkqmL5SFqw1QySjr1zJfpJM9+1rdDwSPLMOPOjKuiXjoU/pUUeG9RwmhY3BhZFkNngAAAAAAAAAAAAAAAAAAAAAAAAAAAAAAAAAAAAAAAAAAAAAAAAAAAAAAAAAAAAAAAAAAAAAAAAAAAAAAAAAAAAAAAAAAAAAAAAAAAAAAAAAAAAAAAAAAAAAAAAAAAAAAAAAAAAAAAAAAAAAAAAAAAAAAAAAAAAAAAAAAAAAAAAAAAAAAAAAAAAAAAAAAAAAAAAAAAAAAAAAAAAAAAAAAAAAAAAAAAAAAAAAAAAAAAAAAAAAAAAAAAAAAAAAAAAAAAAAAAAAAAAAAAAAAAAAAAAAAAAAAAAAAAAAAAAAAAAAAAAAAAAAAAAAAAAAAAAAAAAAAAAAAAAAAAAAAAAAAAAAAAAAAAAAAAAAAAAAAAAAAAAAAAAAAAAAAAAAAAAAAAAAAAAAAAAAAAAAAAAAAAAAAAAAAAAAAAAAAAAAAAAAAAAAAAAAAAAAAAAAAAAAAAAAAAAAAAAAAAAAAAAAAAAAAAAAAAAAAAAAAAAAAAAAAAAAAAAAAAAAAAAAAAAAAAAAAAAAAAAAAAAAAAAAAAAAAAAAAAAAAAAAAAAAAAAAAAAAAAAAAAAAAAAAAAAAAAAAAAAAAAAAAAAAAAAAAAAAAAAAAAAAAAAAAAAAAAAAAAAAAAAAAAAAAAAAAAAAAAAAAAAAAAAAAAAAAAAAAAAAAAAAAAAAAAAAAAAAAAAAAAAAAAAAAAAAAAAAAAAAAAAAAAAAAAAAAAAAAAAAAAAAAAAAAAAAAAAAAAAAAAAAAAAAAAAAAAAAAAAAAAAAAAAAAAAAAAAAAAAAAAAAAAAAAAAAAAAAAAAAAAAAAAAAAAAAAAAAAAAAAAAAAAAAAAAAAAAAAAAAAAAAAAAAAAAAAAAAAAAAAAAAAAAAAAAAAAAAAAAAAAAAAAAAAAAAAAAAAAAAAAAAAAAAAAAAAAAAAAAAAAAAAAAAAAAAAAAAAAAAAAAAAAAAAAAAAAAAAAAAAAAAAAAAAAAAAAAAAAAAAAAAAAAAAAAAAAAAAAAAAAAAAAAAAAAAAAAAAAAAAAAAAAAAAAAAAAAAAAAAAAAAAAAAAAAAAAAAAAAAAAAAAAAAAAAAAAAAAAAAAAAAAAAAAAAAAAAAAAAAAAAAAAAAAAAAAAAAAAAAAAAAAAAAAAAAAAAAAAAAAAAAAAAAAAAAAAAAAAAAAAAAAAAAAAAAAAAAAAAAAAAAAAAAAAAAAAAAAAAAAAAAAAAAAAAAAAAAAAAAAAAAAAAAAAAAAAAAAAAAAAAAAAAAAAAAAAAAAAAAAAAAAAAAAAAAAAAAAAAAAAAAAAAAAAAAAAAAAAAAAAAAAAAAAAAAAAAAAAAAAAAAAAAAAAAAAAAAAAAAAAAAAAAAAAAAAAAAAAAAAAAAAAAAAAAAAAAAAAAAAAAAAAAAAAAAAAAAAAAAAAAAAAAAAAAAAAAAAAAAAAAAAAAAAAAAAAAAAAAAAAAAAAAAAAAAAAAAAAAAAAAAAAAAAAAAAAAAAAAAAAAAAAAAAAAAAAAAAAAAAAAAAAAAAAAAAAAAAAAAAAAAAAAAAAAAAAAAAAAAAAAAAAAAAAAAAAAAAAAAAAAAAAAAAAAAAAAAAAAAAAAAAAAAAAAAAAAAAAAAAAAAAAAAAAAAAAAAAAAAAAAAAAAAAAAAAAAAAAAAAAAAAAAAAAAAAAAAAAAAAAAAAAAAAAAAAAAAAAAAAAAAAAAAAAAAAAAAAAAAAAAAAAAAAAAAAAAAAAAAAAAAAAAAAAAAAAAAAAAAAAAAAAAAAAAAAAAAAAAAAAAAAAAAAAAAAAAAAAAAAAAAAAAAAAAAAAAAAAAAAAAAAAAAAAAAAAAAAAAAAAAAAAAAAAAAAAAAAAAAAAAAAAAAAAAAAAAAAAAAAAAAAAAAAAAAAAAAAAAAAAAAAAAAAAAAAAAAAAAAAAAAAAAAAAAAAAAAAAAAAAAAAAAAAAAAAAAAAAAAAAAAAAAAAAAAAAAAAAAAAAAAAAAAAAAAAAAAAAAAAAAAAAAAAAAAAAAAAAAAAAAAAAAAAAAAAAAAAAAAAAAAAAAAAAAAAAAAAAAAAAAAAAAAAAAAAAAAAAAAAAAAAAAAAAAAAAAAAAAAAAAAAAAAAAAAAAAAAAAAAAAAAAAAAAAAAAAAAAAAAAAAAAAAAAAAAAAAAAAAAAAAAAAAAAAAAAAAAAAAAAAAAAAAAAAAAAAAAAAAAAAAAAAAAAAAAAAAAAAAAAAAAAAAAAAAAAAAAAAAAAAAAAAAAAAAAAAAAAAAAAAAAAAAAAAAAAAAAAAAAAAAAAAAAAAAAAAAAAAAAAAAAAAAAAAAAAAAAAAAAAAAAAAAAAAAAAAAAAAAAAAAAAAAAAAAAAAAAAAAAAAAAAAAAAAAAAAAAAAAAAAAAAAAAAAAAAAAAAAAAAAAAAAAAAAAAAAAAAAAAAAAAAAAAAAAAAAAAAAAAAAAAAAAAAAAAAAAAAAAAAAAAAAAAAAAAAAAAAAAAAAAAAAAAAAAAAAAAAAAAAAAAAAAAAAAAAAAAAAAAAAAAAAAAAAAAAAAAAAAAAAAAAAAAAAAAAAAAAAAAAAAAAAAAAAAAAAAAAAAAAAAAAAAAAAAAAAAAAAAAAAAAAAAAAAAAAAAAAAAAAAAAAAAAAAAAAAAAAAAAAAAAAAAAAAAAAAAAAAAAAAAAAAAAAAAAAAAAAAAAAAAAAAAAAAAAAAAAAAAAAAAAAAAAAAAAAAAAAAAAAAAAAAAAAAAAAAAAAAAAAAAAAAAAAAAAAAAAAAAAAAAAAAAAAAAAAAAAAAAAAAAAAAAAAAAAAAAAAAAAAAAAAAAAAAAAAAAAAAAAAAAAAAAAAAAAAAAAAAAAAAAAAAAAAAAAAAAAAAAAAAAAAAAAAAAAAAAAAAAAAAAAAAAAAAAAAAAAAAAAAAAAAAAAAAAAAAAAAAAAAAAAAAAAAAAAAAAAAAAAAAAAAAAAAAAAAAAAAAAAAAAAAAAAAAAAAAAAAAAAAAAAAAAAAAAAAAAAAAAAAAAAAAAAAAAAAAAAAAAAAAAAAAAAAAAAAAAAAAAAAAAAAAAAAAAAAAAAAAAAAAAAAAAAAAAAAAAAAAAAAAAAAAAAAAAAAAAAAAAAAAAAAAAAAAAAAAAAAAAAAAAAAAAAAAAAAAAAAAAAAAAAAAAAAAAAAAAAAAAAAAAAAAAAAAAAAAAAAAAAAAAAAAAAAAAAAAAAAAAAAAAAAAAAAAAAAAAAAAAAAAAAAAAAAAAAAAAAAAAAAAAAAAAAAAAAAAAAAAAAAAAAAAAAAAAAAAAAAAAAAAAAAAAAAAAAAAAAAAAAAAAAAAAAAAAAAAAAAAAAAAAAAAAAAAAAAAAAAAAAAAAAAAAAAAAAAAAAAAAAAAAAAAAAAAAAAAAAAAAAAAAAAAAAAAAAAAAAAAAAAAAAAAAAAAAAAAAAAAAAAAAAAAAAAAAAAAAAAAAAAAAAAAAAAAAAAAAAAAAAAAAAAAAAAAAAAAAAAAAAAAAAAAAAAAAAAAAAAAAAAAAAAAAAAAAAAAAAAAAAAAAAAAAAAAAAAAAAAAAAAAAAAAAAAAAAAAAAAAAAAAAAAAAAAAAAAAAAAAAAAAAAAAAAAAAAAAAAAAAAAAAAAAAAAAAAAAAAAAAAAAAAAAAAAAAAAAAAAAAAAAAAAAAAAAAAAAAAAAAAAAAAAAAAAAAAAAAAAAAAAAAAAAAAAAAAAAAAAAAAAAAAAAAAAAAAAAAAAAAAAAAAAAAAAAAAAAAAAAAAAAAAAAAAAAAAAAAAAAAAAAAAAAAAAAAAAAAAAAAAAAAAAAAAAAAAAAAAAAAAAAAAAAAAAAAAAAAAAAAAAAAAAAAAAAAAAAAAAAAAAAAAAAAAAAAAAAAAAAAAAAAAAAAAAAAAAAAAAAAAAAAAAAAAAAAAAAAAAAAAAAAAAAAAAAAAAAAAAAAAAAAAAAAAAAAAAAAAAAAAAAAAAAAAAAAAAAAAAAAAAAAAAAAAAAAAAAAAAAAAAAAAAAAAAAAAAAAAAAAAAAAAAAAAAAAAAAAAAAAAAAAAAAAAAAAAAAAAAAAAAAAAAAAAAAAAAAAAAAAAAAAAAAAAAAAAAAAAAAAAAAAAAAAAAAAAAAAAAAAAAAAAAAAAAAAAAAAAAAAAAAAAAAAAAAAAAAAAAAAAAAAAAAAAAAAAAAAAAAAAAAAAAAAAAAAAAAAAAAAAAAAAAAAAAAAAAAAAAAAAAAAAAAAAAAAAAAAAAAAAAAAAAAAAAAAAAAAAAAAAAAAAAAAAAAAAAAAAAAAAAAAAAAAAAAAAAAAAAAAAAAAAAAAAAAAAAAAAAAAAAAAAAAAAAAAAAAAAAAAAAAAAAAAAAAAAAAAAAAAAAAAAAAAAAAAAAAAAAAAAAAAAAAAAAAAAAAAAAAAAAAAAAAAAAAAAAAAAAAAAAAAAAAAAAAAAAAAAAAAAAAAAAAAAAAAAAAAAAAAAAAAAAAAAAAAAAAAAAAAAAAAAAAAAAAAAAAAAAAAAAAAAAAAAAAAAAAAAAAAAAAAAAAAAAAAAAAAAAAAAAAAAAAAAAAAAAAAAAAAAAAAAAAAAAAAAAAAAAAAAAAAAAAAAAAAAAAAAAAAAAAAAAAAAAAAAAAAAAAAAAAAAAAAAAAAAAAAAAAAAAAAAAAAAAAAAAAAAAAAAAAAAAAAAAAAAAAAAAAAAAAAAAPZYQAjO2ynfaqnsrNxe2QRALb56O/uh+DPyuDso9Faoh0nRI1GNpEQ/EkvGGSmv90Teq7p03SwknxJZiXxCOiP5H+M=</c2pa:manifest></metadata><defs><linearGradient id="sky1" x1="0" y1="0" x2="0" y2="1"><stop offset="0%" stop-color="#CFE3F3"/><stop offset="60%" stop-color="#E9EEF0"/><stop offset="100%" stop-color="#F5EFE1"/></linearGradient><radialGradient id="gl2"><stop offset="0%" stop-color="#FFF3C4" stop-opacity=".9"/><stop offset="100%" stop-color="#FFF3C4" stop-opacity="0"/></radialGradient><radialGradient id="vg3" cx="50%" cy="50%" r="70%"><stop offset="60%" stop-color="#000" stop-opacity="0"/><stop offset="100%" stop-color="#000" stop-opacity=".28"/></radialGradient></defs><rect width="800" height="450" fill="url(#sky1)"/><g opacity=".35"><path d="M400 -40 L1300 -40 L1298 14Z" fill="#FFF3C4"/><path d="M400 -40 L1211 350 L1186 398Z" fill="#FFF3C4"/><path d="M400 -40 L961 664 L918 696Z" fill="#FFF3C4"/><path d="M400 -40 L600 837 L547 848Z" fill="#FFF3C4"/><path d="M400 -40 L200 837 L147 824Z" fill="#FFF3C4"/><path d="M400 -40 L-161 664 L-202 629Z" fill="#FFF3C4"/><path d="M400 -40 L-411 350 L-433 301Z" fill="#FFF3C4"/><path d="M400 -40 L-500 -40 L-498 -94Z" fill="#FFF3C4"/><path d="M400 -40 L-411 -430 L-386 -478Z" fill="#FFF3C4"/><path d="M400 -40 L-161 -744 L-118 -776Z" fill="#FFF3C4"/><path d="M400 -40 L200 -917 L253 -928Z" fill="#FFF3C4"/><path d="M400 -40 L600 -917 L653 -904Z" fill="#FFF3C4"/><path d="M400 -40 L961 -744 L1002 -709Z" fill="#FFF3C4"/><path d="M400 -40 L1211 -430 L1233 -381Z" fill="#FFF3C4"/></g><circle cx="400" cy="200" r="140" fill="url(#gl2)"/><path d="M0 330 C120 290 220 300 330 320 S560 280 800 330 L800 450 L0 450Z" fill="#6B7A3E"/><path d="M0 360 C180 330 300 350 420 365 S650 340 800 370 L800 450 L0 450Z" fill="#4C5A2A"/><g transform="translate(400 110) scale(0.8)"><circle r="42" fill="#FFE9A3"/><circle r="30" fill="#FFF6D6"/></g><g transform="translate(400 340) scale(1)"><path d="M-40 120 Q-10 40 60 0 Q100 -20 180 -40 L200 -30 Q120 -8 70 20 Q10 60 20 120Z" fill="#D9B77E" opacity=".9"/></g><g transform="translate(240 340) scale(0.6)"><g><path d="M-24 60 L-12 -50" stroke="#C9A24C" stroke-width="4" stroke-linecap="round"/><ellipse cx="-12" cy="-60" rx="8" ry="18" fill="#E4CE8E" transform="rotate(-14.399999999999999 -12 -60)"/><path d="M-12 60 L-6 -50" stroke="#C9A24C" stroke-width="4" stroke-linecap="round"/><ellipse cx="-6" cy="-60" rx="8" ry="18" fill="#E4CE8E" transform="rotate(-7.199999999999999 -6 -60)"/><path d="M0 60 L0 -50" stroke="#C9A24C" stroke-width="4" stroke-linecap="round"/><ellipse cx="0" cy="-60" rx="8" ry="18" fill="#E4CE8E" transform="rotate(0 0 -60)"/><path d="M12 60 L6 -50" stroke="#C9A24C" stroke-width="4" stroke-linecap="round"/><ellipse cx="6" cy="-60" rx="8" ry="18" fill="#E4CE8E" transform="rotate(7.199999999999999 6 -60)"/><path d="M24 60 L12 -50" stroke="#C9A24C" stroke-width="4" stroke-linecap="round"/><ellipse cx="12" cy="-60" rx="8" ry="18" fill="#E4CE8E" transform="rotate(14.399999999999999 12 -60)"/><path d="M-30 20 Q0 32 30 20" stroke="#6B1F2E" stroke-width="6" fill="none"/></g></g><g transform="translate(560 330) scale(0.6)"><g><rect x="-50" y="-90" width="100" height="12" rx="4" fill="#7A4A22"/><rect x="-50" y="78" width="100" height="12" rx="4" fill="#7A4A22"/><path d="M-40 -78 L40 -78 L4 0 L40 78 L-40 78 L-4 0Z" fill="#DDEBF3" stroke="#8E7F63" stroke-width="2"/><path d="M-30 -74 L30 -74 L2 -10 L-2 -10Z" fill="#D9B77E"/><path d="M-36 76 L36 76 L8 46 L-8 46Z" fill="#D9B77E"/></g></g><g transform="translate(400 355) scale(0.9)"><g><path d="M-110 20 L-110 -60 Q-100 -70 0 -62 Q100 -70 110 -60 L110 20 Q100 30 0 22 Q-100 30 -110 20Z" fill="#6B1F2E"/><path d="M-100 8 L-100 -58 Q-90 -66 -4 -58 L-4 14 Q-90 20 -100 8Z" fill="#F5EFE1"/><path d="M100 8 L100 -58 Q90 -66 4 -58 L4 14 Q90 20 100 8Z" fill="#F5EFE1"/><line x1="-88" y1="-48" x2="-14" y2="-46" stroke="#8E7F63" stroke-width="1.6" opacity=".7"/><line x1="14" y1="-46" x2="88" y2="-48" stroke="#8E7F63" stroke-width="1.6" opacity=".7"/><line x1="-88" y1="-40" x2="-14" y2="-38" stroke="#8E7F63" stroke-width="1.6" opacity=".7"/><line x1="14" y1="-38" x2="88" y2="-40" stroke="#8E7F63" stroke-width="1.6" opacity=".7"/><line x1="-88" y1="-32" x2="-14" y2="-30" stroke="#8E7F63" stroke-width="1.6" opacity=".7"/><line x1="14" y1="-30" x2="88" y2="-32" stroke="#8E7F63" stroke-width="1.6" opacity=".7"/><line x1="-88" y1="-24" x2="-14" y2="-22" stroke="#8E7F63" stroke-width="1.6" opacity=".7"/><line x1="14" y1="-22" x2="88" y2="-24" stroke="#8E7F63" stroke-width="1.6" opacity=".7"/><line x1="-88" y1="-16" x2="-14" y2="-14" stroke="#8E7F63" stroke-width="1.6" opacity=".7"/><line x1="14" y1="-14" x2="88" y2="-16" stroke="#8E7F63" stroke-width="1.6" opacity=".7"/><line x1="-88" y1="-8" x2="-14" y2="-6" stroke="#8E7F63" stroke-width="1.6" opacity=".7"/><line x1="14" y1="-6" x2="88" y2="-8" stroke="#8E7F63" stroke-width="1.6" opacity=".7"/><line x1="-88" y1="0" x2="-14" y2="2" stroke="#8E7F63" stroke-width="1.6" opacity=".7"/><line x1="14" y1="2" x2="88" y2="0" stroke="#8E7F63" stroke-width="1.6" opacity=".7"/><path d="M-2 -60 L-2 16" stroke="#6B1F2E" stroke-width="3"/><path d="M0 -70 L0 -52 M-8 -64 L8 -64" stroke="#C9A24C" stroke-width="3" stroke-linecap="round"/><path d="M-30 22 L-30 34 L-22 30 L-14 34 L-14 22" fill="#C9A24C"/></g></g><rect width="800" height="450" fill="url(#vg3)"/><rect x="6" y="6" width="788" height="438" fill="none" stroke="#C9A24C" stroke-width="3"/><rect x="14" y="14" width="772" height="422" fill="none" stroke="#C9A24C" stroke-width="1" opacity=".7"/></svg>